<svg width="24" height="24" viewBox="0 0 24 24" fill="none" xmlns="http://www.w3.org/2000/svg">
<g clip-path="url(#clip0)">
<path d="M11.903 6.04907C11.3097 6.04907 10.7297 6.22226 10.2363 6.54674C9.74296 6.87122 9.35844 7.33242 9.13138 7.87201C8.90431 8.4116 8.8449 9.00535 8.96066 9.57817C9.07642 10.151 9.36214 10.6772 9.7817 11.0902C10.2013 11.5031 10.7358 11.7844 11.3177 11.8983C11.8997 12.0123 12.5029 11.9538 13.0511 11.7303C13.5992 11.5068 14.0678 11.1283 14.3974 10.6427C14.7271 10.1571 14.903 9.58612 14.903 9.00207C14.902 8.21921 14.5855 7.46871 14.0232 6.91514C13.4608 6.36157 12.6983 6.05011 11.903 6.04907ZM11.903 10.4786C11.6063 10.4786 11.3163 10.392 11.0697 10.2297C10.823 10.0675 10.6307 9.8369 10.5172 9.5671C10.4037 9.29731 10.374 9.00044 10.4318 8.71402C10.4897 8.42761 10.6326 8.16452 10.8424 7.95803C11.0521 7.75154 11.3194 7.61091 11.6104 7.55394C11.9014 7.49697 12.203 7.52621 12.477 7.63796C12.7511 7.74972 12.9854 7.93896 13.1502 8.18177C13.315 8.42458 13.403 8.71005 13.403 9.00207C13.4025 9.3935 13.2443 9.76876 12.9631 10.0455C12.6819 10.3223 12.3007 10.4781 11.903 10.4786Z" fill="black"/>
<path d="M20.011 8.16444C19.568 4.10603 16.107 0.9729 11.902 0.9729C10.4305 0.972692 8.98641 1.36448 7.72284 2.10671C6.45926 2.84895 5.42331 3.91395 4.72484 5.18879C4.02638 6.46363 3.69144 7.90077 3.75555 9.34781C3.81965 10.7949 4.28042 12.1978 5.08898 13.408L5.06998 13.3775L10.738 21.9422C10.864 22.132 11.036 22.2879 11.2385 22.3961C11.4409 22.5042 11.6675 22.5612 11.8979 22.5617C12.1282 22.5623 12.3551 22.5066 12.5581 22.3994C12.7611 22.2923 12.9339 22.1372 13.061 21.9481L13.064 21.9431L18.732 13.3785C19.5981 12.0748 20.0574 10.55 20.053 8.99227C20.053 8.7009 20.037 8.41348 20.007 8.12999L20.01 8.16543L20.011 8.16444ZM17.477 12.5713L11.903 20.9942L6.32898 12.5713C5.50191 11.3111 5.13727 9.81043 5.2955 8.31822C5.45374 6.826 6.12535 5.43184 7.19898 4.36688C8.40298 3.18175 10.066 2.44842 11.903 2.44842C13.74 2.44842 15.403 3.18175 16.607 4.36688C17.6806 5.43184 18.3522 6.826 18.5104 8.31822C18.6687 9.81043 18.304 11.3111 17.477 12.5713Z" fill="black"/>
</g>
<defs>
<clipPath id="clip0">
<rect y="0.161865" width="24" height="23.624" fill="white"/>
</clipPath>
</defs>
</svg>
