<svg width="22" height="16" viewBox="0 0 22 16" fill="none" xmlns="http://www.w3.org/2000/svg">
  <path d="M1.25 0.469727H20.75C21.1648 0.469727 21.5 0.77214 21.5 1.14646V14.6811C21.5 15.0554 21.1648 15.3578 20.75 15.3578H1.25C0.835155 15.3578 0.5 15.0554 0.5 14.6811V1.14646C0.5 0.77214 0.835155 0.469727 1.25 0.469727ZM2.1875 2.8129V13.8351H19.8125V2.8129L20.4594 2.35823L19.5383 1.29026L18.5352 1.99448H3.4625L2.45937 1.29026L1.53828 2.35823L2.1875 2.8129ZM3.4625 1.99237L11 7.27932L18.5375 1.99237L19.5406 1.28815L20.4617 2.35611L19.8148 2.81079L11.8086 8.42765C11.5783 8.58905 11.2951 8.67666 11.0035 8.67666C10.7119 8.67666 10.4287 8.58905 10.1984 8.42765L2.1875 2.8129L1.54063 2.35823L2.46172 1.29026L3.4625 1.99237Z" fill="black"/>
</svg>