<svg width="22" height="20" viewBox="0 0 22 20" fill="none" xmlns="http://www.w3.org/2000/svg">
  <path d="M16.9204 10.6464C16.816 10.5511 16.692 10.4755 16.5555 10.4239C16.4191 10.3723 16.2728 10.3458 16.125 10.3458C15.9773 10.3458 15.831 10.3723 15.6945 10.4239C15.558 10.4755 15.434 10.5511 15.3296 10.6464L13.5364 12.2808C12.705 12.0552 11.1536 11.5426 10.1704 10.6464C9.18713 9.75025 8.62463 8.33629 8.37713 7.57856L10.1704 5.94415C10.2749 5.84901 10.3579 5.73602 10.4145 5.61163C10.4711 5.48724 10.5002 5.35389 10.5002 5.21923C10.5002 5.08457 10.4711 4.95123 10.4145 4.82684C10.3579 4.70245 10.2749 4.58945 10.1704 4.49431L5.67038 0.392918C5.566 0.297617 5.44202 0.22201 5.30554 0.170424C5.16906 0.118838 5.02276 0.0922852 4.87501 0.0922852C4.72726 0.0922852 4.58096 0.118838 4.44448 0.170424C4.308 0.22201 4.18402 0.297617 4.07963 0.392918L1.02863 3.17366C0.601134 3.56329 0.360384 4.09853 0.369384 4.64504C0.395259 6.10513 0.819385 11.1765 5.20463 15.1733C9.58988 19.1701 15.1541 19.5556 16.7573 19.5803H16.7888C17.3828 19.5803 17.9441 19.367 18.3694 18.9794L21.4204 16.1987C21.5249 16.1035 21.6079 15.9905 21.6645 15.8661C21.7211 15.7417 21.7502 15.6084 21.7502 15.4737C21.7502 15.3391 21.7211 15.2057 21.6645 15.0813C21.6079 14.957 21.5249 14.844 21.4204 14.7488L16.9204 10.6464ZM16.7775 17.5285C15.3735 17.507 10.5698 17.1635 6.79538 13.7224C3.00863 10.2711 2.64188 5.87751 2.61938 4.6235L4.87501 2.56768L7.78426 5.21923L6.32963 6.54501C6.1974 6.66543 6.10018 6.81399 6.04676 6.97726C5.99333 7.14053 5.98538 7.31336 6.02363 7.48012C6.05063 7.59804 6.71101 10.3942 8.57851 12.0962C10.446 13.7983 13.5139 14.4002 13.6433 14.4248C13.8261 14.4607 14.0159 14.454 14.1952 14.4054C14.3745 14.3569 14.5375 14.268 14.6693 14.1469L16.125 12.8212L19.0343 15.4727L16.7775 17.5285Z" fill="black"/>
</svg>
